<svg xmlns="http://www.w3.org/2000/svg" xmlns:svg="http://www.w3.org/2000/svg" xmlns:xlink="http://www.w3.org/1999/xlink" id="svg563" width="798.399" height="548.56" version="1.1" viewBox="0 0 598.799 411.42"><metadata id="metadata2"/><defs id="defs6"><style id="style4" type="text/css">*{stroke-linecap:butt;stroke-linejoin:round}</style></defs><g id="figure_1" transform="translate(-40.80875,-28.795475)"><g id="axes_1"><g id="patch_2"><path style="fill:#fff" id="path11" d="M 87.39,399.8592 H 629.208 V 53.9136 H 87.39 Z"/></g><g id="matplotlib.axis_1"><g id="xtick_1"><g id="line2d_1"><path style="fill:none;stroke:#b0b0b0;stroke-width:.8;stroke-linecap:square" id="path14" d="M 112.01809,399.8592 V 53.9136" clip-path="url(#pca11af20ff)"/></g><g id="line2d_2"><defs id="defs18"><path id="m9e41b7a456" d="M 0,0 V 3.5" style="stroke:#000;stroke-width:.8"/></defs><g id="g22"><use style="stroke:#000;stroke-width:.8" id="use20" width="100%" height="100%" x="112.018" y="399.859" xlink:href="#m9e41b7a456"/></g></g><g id="text_1"><g id="g36" transform="matrix(0.1,0,0,-0.1,104.06653,414.45764)"><defs id="defs28"><path id="DejaVuSans-48" d="m 31.78125,66.40625 q -7.609375,0 -11.453125,-7.5 Q 16.5,51.421875 16.5,36.375 q 0,-14.984375 3.828125,-22.484375 3.84375,-7.5 11.453125,-7.5 7.671875,0 11.5,7.5 3.84375,7.5 3.84375,22.484375 0,15.046875 -3.84375,22.53125 -3.828125,7.5 -11.5,7.5 z m 0,7.8125 q 12.265625,0 18.734375,-9.703125 6.46875,-9.6875 6.46875,-28.140625 0,-18.40625 -6.46875,-28.109375 -6.46875,-9.6875 -18.734375,-9.6875 -12.25,0 -18.71875,9.6875 Q 6.59375,17.96875 6.59375,36.375 q 0,18.453125 6.46875,28.140625 6.46875,9.703125 18.71875,9.703125 z"/><path id="DejaVuSans-46" d="M 10.6875,12.40625 H 21 V 0 H 10.6875 Z"/><path id="DejaVuSans-53" d="m 10.796875,72.90625 h 38.71875 v -8.3125 h -29.6875 V 46.734375 q 2.140625,0.734375 4.28125,1.09375 2.15625,0.359375 4.3125,0.359375 Q 40.625,48.1875 47.75,41.5 54.890625,34.8125 54.890625,23.390625 54.890625,11.625 47.5625,5.09375 40.234375,-1.421875 26.90625,-1.421875 q -4.59375,0 -9.359375,0.78125 -4.75,0.78125 -9.828125,2.34375 V 11.625 q 4.390625,-2.390625 9.078125,-3.5625 4.6875,-1.171875 9.90625,-1.171875 8.453125,0 13.375,4.4375 4.9375,4.4375 4.9375,12.0625 0,7.609375 -4.9375,12.046875 -4.921875,4.453125 -13.375,4.453125 -3.953125,0 -7.890625,-0.875 -3.921875,-0.875 -8.015625,-2.734375 z"/></defs><use id="use30" width="100%" height="100%" x="0" y="0" xlink:href="#DejaVuSans-48"/><use id="use32" width="100%" height="100%" x="63.623" y="0" xlink:href="#DejaVuSans-46"/><use id="use34" width="100%" height="100%" x="95.41" y="0" xlink:href="#DejaVuSans-53"/></g></g></g><g id="xtick_2"><g id="line2d_3"><path style="fill:none;stroke:#b0b0b0;stroke-width:.8;stroke-linecap:square" id="path40" d="M 210.53144,399.8592 V 53.9136" clip-path="url(#pca11af20ff)"/></g><g id="line2d_4"><g id="g45"><use style="stroke:#000;stroke-width:.8" id="use43" width="100%" height="100%" x="210.531" y="399.859" xlink:href="#m9e41b7a456"/></g></g><g id="text_2"><g id="g57" transform="matrix(0.1,0,0,-0.1,202.57988,414.45764)"><defs id="defs49"><path id="DejaVuSans-54" d="m 33.015625,40.375 q -6.640625,0 -10.53125,-4.546875 -3.875,-4.53125 -3.875,-12.4375 0,-7.859375 3.875,-12.4375 3.890625,-4.5625 10.53125,-4.5625 6.640625,0 10.515625,4.5625 3.875,4.578125 3.875,12.4375 0,7.90625 -3.875,12.4375 Q 39.65625,40.375 33.015625,40.375 Z M 52.59375,71.296875 V 62.3125 q -3.71875,1.75 -7.5,2.671875 -3.78125,0.9375 -7.5,0.9375 -9.765625,0 -14.921875,-6.59375 -5.140625,-6.59375 -5.875,-19.921875 2.875,4.25 7.21875,6.515625 4.359375,2.265625 9.578125,2.265625 10.984375,0 17.359375,-6.671875 6.375,-6.65625 6.375,-18.125 0,-11.234375 -6.640625,-18.03125 -6.640625,-6.78125 -17.671875,-6.78125 -12.65625,0 -19.34375,9.6875 -6.6875,9.703125 -6.6875,28.109375 0,17.28125 8.203125,27.5625 8.203125,10.28125 22.015625,10.28125 3.71875,0 7.5,-0.734375 3.78125,-0.734375 7.890625,-2.1875 z"/></defs><use id="use51" width="100%" height="100%" x="0" y="0" xlink:href="#DejaVuSans-48"/><use id="use53" width="100%" height="100%" x="63.623" y="0" xlink:href="#DejaVuSans-46"/><use id="use55" width="100%" height="100%" x="95.41" y="0" xlink:href="#DejaVuSans-54"/></g></g></g><g id="xtick_3"><g id="line2d_5"><path style="fill:none;stroke:#b0b0b0;stroke-width:.8;stroke-linecap:square" id="path61" d="M 309.04479,399.8592 V 53.9136" clip-path="url(#pca11af20ff)"/></g><g id="line2d_6"><g id="g66"><use style="stroke:#000;stroke-width:.8" id="use64" width="100%" height="100%" x="309.045" y="399.859" xlink:href="#m9e41b7a456"/></g></g><g id="text_3"><g id="g78" transform="matrix(0.1,0,0,-0.1,301.09323,414.45764)"><defs id="defs70"><path id="DejaVuSans-55" d="m 8.203125,72.90625 h 46.875 V 68.703125 L 28.609375,0 H 18.3125 L 43.21875,64.59375 H 8.203125 Z"/></defs><use id="use72" width="100%" height="100%" x="0" y="0" xlink:href="#DejaVuSans-48"/><use id="use74" width="100%" height="100%" x="63.623" y="0" xlink:href="#DejaVuSans-46"/><use id="use76" width="100%" height="100%" x="95.41" y="0" xlink:href="#DejaVuSans-55"/></g></g></g><g id="xtick_4"><g id="line2d_7"><path style="fill:none;stroke:#b0b0b0;stroke-width:.8;stroke-linecap:square" id="path82" d="M 407.55814,399.8592 V 53.9136" clip-path="url(#pca11af20ff)"/></g><g id="line2d_8"><g id="g87"><use style="stroke:#000;stroke-width:.8" id="use85" width="100%" height="100%" x="407.558" y="399.859" xlink:href="#m9e41b7a456"/></g></g><g id="text_4"><g id="g99" transform="matrix(0.1,0,0,-0.1,399.60658,414.45764)"><defs id="defs91"><path id="DejaVuSans-56" d="m 31.78125,34.625 q -7.03125,0 -11.0625,-3.765625 -4.015625,-3.765625 -4.015625,-10.34375 0,-6.59375 4.015625,-10.359375 4.03125,-3.765625 11.0625,-3.765625 7.03125,0 11.078125,3.78125 4.0625,3.796875 4.0625,10.34375 0,6.578125 -4.03125,10.34375 Q 38.875,34.625 31.78125,34.625 Z m -9.859375,4.1875 Q 15.578125,40.375 12.03125,44.71875 8.5,49.078125 8.5,55.328125 q 0,8.734375 6.21875,13.8125 6.234375,5.078125 17.0625,5.078125 10.890625,0 17.09375,-5.078125 6.203125,-5.078125 6.203125,-13.8125 0,-6.25 -3.546875,-10.609375 Q 48,40.375 41.703125,38.8125 q 7.125,-1.65625 11.09375,-6.5 3.984375,-4.828125 3.984375,-11.796875 0,-10.609375 -6.46875,-16.28125 -6.46875,-5.65625 -18.53125,-5.65625 -12.046875,0 -18.53125,5.65625 -6.46875,5.671875 -6.46875,16.28125 0,6.96875 4,11.796875 4.015625,4.84375 11.140625,6.5 z M 18.3125,54.390625 q 0,-5.65625 3.53125,-8.828125 3.546875,-3.171875 9.9375,-3.171875 6.359375,0 9.9375,3.171875 3.59375,3.171875 3.59375,8.828125 0,5.671875 -3.59375,8.84375 -3.578125,3.171875 -9.9375,3.171875 -6.390625,0 -9.9375,-3.171875 Q 18.3125,60.0625 18.3125,54.390625 Z"/></defs><use id="use93" width="100%" height="100%" x="0" y="0" xlink:href="#DejaVuSans-48"/><use id="use95" width="100%" height="100%" x="63.623" y="0" xlink:href="#DejaVuSans-46"/><use id="use97" width="100%" height="100%" x="95.41" y="0" xlink:href="#DejaVuSans-56"/></g></g></g><g id="xtick_5"><g id="line2d_9"><path style="fill:none;stroke:#b0b0b0;stroke-width:.8;stroke-linecap:square" id="path103" d="M 506.07149,399.8592 V 53.9136" clip-path="url(#pca11af20ff)"/></g><g id="line2d_10"><g id="g108"><use style="stroke:#000;stroke-width:.8" id="use106" width="100%" height="100%" x="506.071" y="399.859" xlink:href="#m9e41b7a456"/></g></g><g id="text_5"><g id="g120" transform="matrix(0.1,0,0,-0.1,498.11992,414.45764)"><defs id="defs112"><path id="DejaVuSans-57" d="M 10.984375,1.515625 V 10.5 Q 14.703125,8.734375 18.5,7.8125 q 3.8125,-0.921875 7.484375,-0.921875 9.765625,0 14.90625,6.5625 5.15625,6.5625 5.890625,19.953125 -2.828125,-4.203125 -7.1875,-6.453125 -4.34375,-2.25 -9.609375,-2.25 -10.9375,0 -17.3125,6.609375 -6.375,6.625 -6.375,18.109375 0,11.21875 6.640625,18 6.640625,6.796875 17.671875,6.796875 12.65625,0 19.3125,-9.703125 6.671875,-9.6875 6.671875,-28.140625 0,-17.234375 -8.1875,-27.515625 -8.171875,-10.28125 -21.984375,-10.28125 -3.71875,0 -7.53125,0.734375 -3.796875,0.734375 -7.90625,2.203125 z m 19.625,30.90625 q 6.640625,0 10.515625,4.53125 3.890625,4.546875 3.890625,12.46875 0,7.859375 -3.890625,12.421875 -3.875,4.5625 -10.515625,4.5625 -6.640625,0 -10.515625,-4.5625 -3.875,-4.5625 -3.875,-12.421875 0,-7.921875 3.875,-12.46875 3.875,-4.53125 10.515625,-4.53125 z"/></defs><use id="use114" width="100%" height="100%" x="0" y="0" xlink:href="#DejaVuSans-48"/><use id="use116" width="100%" height="100%" x="63.623" y="0" xlink:href="#DejaVuSans-46"/><use id="use118" width="100%" height="100%" x="95.41" y="0" xlink:href="#DejaVuSans-57"/></g></g></g><g id="xtick_6"><g id="line2d_11"><path style="fill:none;stroke:#b0b0b0;stroke-width:.8;stroke-linecap:square" id="path124" d="M 604.58483,399.8592 V 53.9136" clip-path="url(#pca11af20ff)"/></g><g id="line2d_12"><g id="g129"><use style="stroke:#000;stroke-width:.8" id="use127" width="100%" height="100%" x="604.585" y="399.859" xlink:href="#m9e41b7a456"/></g></g><g id="text_6"><g id="g141" transform="matrix(0.1,0,0,-0.1,596.63327,414.45764)"><defs id="defs133"><path id="DejaVuSans-49" d="m 12.40625,8.296875 h 16.109375 v 55.625 L 10.984375,60.40625 v 8.984375 l 17.4375,3.515625 H 38.28125 V 8.296875 H 54.390625 V 0 H 12.40625 Z"/></defs><use id="use135" width="100%" height="100%" x="0" y="0" xlink:href="#DejaVuSans-49"/><use id="use137" width="100%" height="100%" x="63.623" y="0" xlink:href="#DejaVuSans-46"/><use id="use139" width="100%" height="100%" x="95.41" y="0" xlink:href="#DejaVuSans-48"/></g></g></g><g id="text_7"><g id="g210" transform="matrix(0.1,0,0,-0.1,296.05369,428.13576)"><defs id="defs158"><path id="DejaVuSans-120" d="M 54.890625,54.6875 35.109375,28.078125 55.90625,0 H 45.3125 L 29.390625,21.484375 13.484375,0 H 2.875 L 24.125,28.609375 4.6875,54.6875 h 10.59375 l 14.5,-19.484375 14.5,19.484375 z"/><path id="DejaVuSans-32"/><path id="DejaVuSans-119" d="M 4.203125,54.6875 H 13.1875 L 24.421875,12.015625 35.59375,54.6875 H 46.1875 L 57.421875,12.015625 68.609375,54.6875 H 77.59375 L 63.28125,0 H 52.6875 L 40.921875,44.828125 29.109375,0 H 18.5 Z"/><path id="DejaVuSans-101" d="m 56.203125,29.59375 v -4.390625 h -41.3125 q 0.59375,-9.28125 5.59375,-14.140625 5,-4.859375 13.9375,-4.859375 5.171875,0 10.03125,1.265625 4.859375,1.265625 9.65625,3.8125 v -8.5 q -4.84375,-2.046875 -9.921875,-3.125 -5.078125,-1.078125 -10.296875,-1.078125 -13.09375,0 -20.734375,7.609375 -7.640625,7.625 -7.640625,20.625 0,13.421875 7.25,21.296875 Q 20.015625,56 32.328125,56 q 11.03125,0 17.453125,-7.109375 6.421875,-7.09375 6.421875,-19.296875 z m -8.984375,2.640625 q -0.09375,7.359375 -4.125,11.75 -4.03125,4.40625 -10.671875,4.40625 -7.515625,0 -12.03125,-4.25 -4.515625,-4.25 -5.203125,-11.96875 z"/><path id="DejaVuSans-105" d="M 9.421875,54.6875 H 18.40625 V 0 H 9.421875 Z m 0,21.296875 H 18.40625 V 64.59375 H 9.421875 Z"/><path id="DejaVuSans-103" d="m 45.40625,27.984375 q 0,9.765625 -4.03125,15.125 -4.015625,5.375 -11.296875,5.375 -7.21875,0 -11.25,-5.375 -4.03125,-5.359375 -4.03125,-15.125 0,-9.71875 4.03125,-15.09375 4.03125,-5.375 11.25,-5.375 7.28125,0 11.296875,5.375 4.03125,5.375 4.03125,15.09375 z M 54.390625,6.78125 q 0,-13.953125 -6.203125,-20.765625 -6.1875,-6.8125 -18.984375,-6.8125 -4.734375,0 -8.9375,0.703125 -4.203125,0.703125 -8.15625,2.171875 V -9.1875 q 3.953125,-2.140625 7.8125,-3.15625 3.859375,-1.03125 7.859375,-1.03125 8.84375,0 13.234375,4.609375 4.390625,4.609375 4.390625,13.9375 V 9.625 Q 42.625,4.78125 38.28125,2.390625 33.9375,0 27.875,0 17.828125,0 11.671875,7.65625 q -6.15625,7.671875 -6.15625,20.328125 0,12.6875 6.15625,20.34375 Q 17.828125,56 27.875,56 q 6.0625,0 10.40625,-2.390625 4.34375,-2.390625 7.125,-7.21875 V 54.6875 h 8.984375 z"/><path id="DejaVuSans-104" d="M 54.890625,33.015625 V 0 H 45.90625 v 32.71875 q 0,7.765625 -3.03125,11.609375 -3.03125,3.859375 -9.078125,3.859375 -7.28125,0 -11.484375,-4.640625 -4.203125,-4.625 -4.203125,-12.640625 V 0 h -9.03125 v 75.984375 h 9.03125 V 46.1875 q 3.234375,4.9375 7.59375,7.375 4.375,2.4375 10.09375,2.4375 9.421875,0 14.25,-5.828125 4.84375,-5.828125 4.84375,-17.15625 z"/><path id="DejaVuSans-116" d="M 18.3125,70.21875 V 54.6875 h 18.5 v -6.984375 h -18.5 v -29.6875 q 0,-6.6875 1.828125,-8.59375 1.828125,-1.90625 7.453125,-1.90625 H 36.8125 V 0 H 27.59375 Q 17.1875,0 13.234375,3.875 9.28125,7.765625 9.28125,18.015625 v 29.6875 H 2.6875 V 54.6875 h 6.59375 v 15.53125 z"/><path id="DejaVuSans-40" d="M 31,75.875 Q 24.46875,64.65625 21.28125,53.65625 18.109375,42.671875 18.109375,31.390625 18.109375,20.125 21.3125,9.0625 24.515625,-2 31,-13.1875 H 23.1875 Q 15.875,-1.703125 12.234375,9.375 8.59375,20.453125 8.59375,31.390625 q 0,10.890625 3.609375,21.921875 3.625,11.046875 10.984375,22.5625 z"/><path id="DejaVuSans-61" d="M 10.59375,45.40625 H 73.1875 V 37.203125 H 10.59375 Z m 0,-19.921875 H 73.1875 V 17.1875 H 10.59375 Z"/><path id="DejaVuSans-45" d="m 4.890625,31.390625 h 26.3125 v -8 h -26.3125 z"/><path id="DejaVuSans-121" d="M 32.171875,-5.078125 Q 28.375,-14.84375 24.75,-17.8125 q -3.609375,-2.984375 -9.65625,-2.984375 h -7.1875 v 7.515625 h 5.28125 q 3.703125,0 5.75,1.765625 2.0625,1.75 4.546875,8.296875 L 25.09375,0.875 2.984375,54.6875 H 12.5 L 29.59375,11.921875 46.6875,54.6875 h 9.515625 z"/><path id="DejaVuSans-41" d="m 8.015625,75.875 h 7.8125 q 7.3125,-11.515625 10.953125,-22.5625 3.640625,-11.03125 3.640625,-21.921875 0,-10.9375 -3.640625,-22.015625 -3.640625,-11.078125 -10.953125,-22.5625 h -7.8125 Q 14.5,-2 17.703125,9.0625 20.90625,20.125 20.90625,31.390625 q 0,11.28125 -3.203125,22.265625 -3.203125,11 -9.6875,22.21875 z"/></defs><use id="use160" width="100%" height="100%" x="0" y="0" xlink:href="#DejaVuSans-120"/><use id="use162" width="100%" height="100%" x="59.18" y="0" xlink:href="#DejaVuSans-32"/><use id="use164" width="100%" height="100%" x="90.967" y="0" xlink:href="#DejaVuSans-119"/><use id="use166" width="100%" height="100%" x="172.754" y="0" xlink:href="#DejaVuSans-101"/><use id="use168" width="100%" height="100%" x="234.277" y="0" xlink:href="#DejaVuSans-105"/><use id="use170" width="100%" height="100%" x="262.061" y="0" xlink:href="#DejaVuSans-103"/><use id="use172" width="100%" height="100%" x="325.537" y="0" xlink:href="#DejaVuSans-104"/><use id="use174" width="100%" height="100%" x="388.916" y="0" xlink:href="#DejaVuSans-116"/><use id="use176" width="100%" height="100%" x="428.125" y="0" xlink:href="#DejaVuSans-32"/><use id="use178" width="100%" height="100%" x="459.912" y="0" xlink:href="#DejaVuSans-40"/><use id="use180" width="100%" height="100%" x="498.926" y="0" xlink:href="#DejaVuSans-61"/><use id="use182" width="100%" height="100%" x="582.715" y="0" xlink:href="#DejaVuSans-32"/><use id="use184" width="100%" height="100%" x="614.502" y="0" xlink:href="#DejaVuSans-49"/><use id="use186" width="100%" height="100%" x="678.125" y="0" xlink:href="#DejaVuSans-32"/><use id="use188" width="100%" height="100%" x="709.912" y="0" xlink:href="#DejaVuSans-45"/><use id="use190" width="100%" height="100%" x="745.996" y="0" xlink:href="#DejaVuSans-32"/><use id="use192" width="100%" height="100%" x="777.783" y="0" xlink:href="#DejaVuSans-121"/><use id="use194" width="100%" height="100%" x="836.963" y="0" xlink:href="#DejaVuSans-32"/><use id="use196" width="100%" height="100%" x="868.75" y="0" xlink:href="#DejaVuSans-119"/><use id="use198" width="100%" height="100%" x="950.537" y="0" xlink:href="#DejaVuSans-101"/><use id="use200" width="100%" height="100%" x="1012.061" y="0" xlink:href="#DejaVuSans-105"/><use id="use202" width="100%" height="100%" x="1039.844" y="0" xlink:href="#DejaVuSans-103"/><use id="use204" width="100%" height="100%" x="1103.32" y="0" xlink:href="#DejaVuSans-104"/><use id="use206" width="100%" height="100%" x="1166.699" y="0" xlink:href="#DejaVuSans-116"/><use id="use208" width="100%" height="100%" x="1205.908" y="0" xlink:href="#DejaVuSans-41"/></g></g></g><g id="matplotlib.axis_2"><g id="ytick_1"><g id="line2d_13"><path style="fill:none;stroke:#b0b0b0;stroke-width:.8;stroke-linecap:square" id="path214" d="M 87.39,384.13468 H 629.208" clip-path="url(#pca11af20ff)"/></g><g id="line2d_14"><defs id="defs218"><path id="mba15929484" d="M 0,0 H -3.5" style="stroke:#000;stroke-width:.8"/></defs><g id="g222"><use style="stroke:#000;stroke-width:.8" id="use220" width="100%" height="100%" x="87.39" y="384.135" xlink:href="#mba15929484"/></g></g><g id="text_8"><g id="g231" transform="matrix(0.1,0,0,-0.1,64.486875,387.9339)"><use id="use225" width="100%" height="100%" x="0" y="0" xlink:href="#DejaVuSans-48"/><use id="use227" width="100%" height="100%" x="63.623" y="0" xlink:href="#DejaVuSans-46"/><use id="use229" width="100%" height="100%" x="95.41" y="0" xlink:href="#DejaVuSans-48"/></g></g></g><g id="ytick_2"><g id="line2d_15"><path style="fill:none;stroke:#b0b0b0;stroke-width:.8;stroke-linecap:square" id="path235" d="M 87.39,321.23543 H 629.208" clip-path="url(#pca11af20ff)"/></g><g id="line2d_16"><g id="g240"><use style="stroke:#000;stroke-width:.8" id="use238" width="100%" height="100%" x="87.39" y="321.235" xlink:href="#mba15929484"/></g></g><g id="text_9"><g id="g252" transform="matrix(0.1,0,0,-0.1,64.486875,325.03464)"><defs id="defs244"><path id="DejaVuSans-50" d="M 19.1875,8.296875 H 53.609375 V 0 H 7.328125 v 8.296875 q 5.609375,5.8125 15.296875,15.59375 9.703125,9.796875 12.1875,12.640625 4.734375,5.3125 6.609375,9 1.890625,3.6875 1.890625,7.25 0,5.8125 -4.078125,9.46875 -4.078125,3.671875 -10.625,3.671875 -4.640625,0 -9.796875,-1.609375 -5.140625,-1.609375 -11,-4.890625 v 9.96875 Q 13.765625,71.78125 18.9375,73 q 5.1875,1.21875 9.484375,1.21875 11.328125,0 18.0625,-5.671875 6.734375,-5.65625 6.734375,-15.125 0,-4.5 -1.6875,-8.53125 Q 49.859375,40.875 45.40625,35.40625 44.1875,33.984375 37.640625,27.21875 31.109375,20.453125 19.1875,8.296875 Z"/></defs><use id="use246" width="100%" height="100%" x="0" y="0" xlink:href="#DejaVuSans-48"/><use id="use248" width="100%" height="100%" x="63.623" y="0" xlink:href="#DejaVuSans-46"/><use id="use250" width="100%" height="100%" x="95.41" y="0" xlink:href="#DejaVuSans-50"/></g></g></g><g id="ytick_3"><g id="line2d_17"><path style="fill:none;stroke:#b0b0b0;stroke-width:.8;stroke-linecap:square" id="path256" d="M 87.39,258.33617 H 629.208" clip-path="url(#pca11af20ff)"/></g><g id="line2d_18"><g id="g261"><use style="stroke:#000;stroke-width:.8" id="use259" width="100%" height="100%" x="87.39" y="258.336" xlink:href="#mba15929484"/></g></g><g id="text_10"><g id="g273" transform="matrix(0.1,0,0,-0.1,64.486875,262.13539)"><defs id="defs265"><path id="DejaVuSans-52" d="M 37.796875,64.3125 12.890625,25.390625 h 24.90625 z m -2.59375,8.59375 h 12.40625 V 25.390625 h 10.40625 V 17.1875 H 47.609375 V 0 h -9.8125 V 17.1875 H 4.890625 v 9.515625 z"/></defs><use id="use267" width="100%" height="100%" x="0" y="0" xlink:href="#DejaVuSans-48"/><use id="use269" width="100%" height="100%" x="63.623" y="0" xlink:href="#DejaVuSans-46"/><use id="use271" width="100%" height="100%" x="95.41" y="0" xlink:href="#DejaVuSans-52"/></g></g></g><g id="ytick_4"><g id="line2d_19"><path style="fill:none;stroke:#b0b0b0;stroke-width:.8;stroke-linecap:square" id="path277" d="M 87.39,195.43691 H 629.208" clip-path="url(#pca11af20ff)"/></g><g id="line2d_20"><g id="g282"><use style="stroke:#000;stroke-width:.8" id="use280" width="100%" height="100%" x="87.39" y="195.437" xlink:href="#mba15929484"/></g></g><g id="text_11"><g id="g291" transform="matrix(0.1,0,0,-0.1,64.486875,199.23613)"><use id="use285" width="100%" height="100%" x="0" y="0" xlink:href="#DejaVuSans-48"/><use id="use287" width="100%" height="100%" x="63.623" y="0" xlink:href="#DejaVuSans-46"/><use id="use289" width="100%" height="100%" x="95.41" y="0" xlink:href="#DejaVuSans-54"/></g></g></g><g id="ytick_5"><g id="line2d_21"><path style="fill:none;stroke:#b0b0b0;stroke-width:.8;stroke-linecap:square" id="path295" d="M 87.39,132.53766 H 629.208" clip-path="url(#pca11af20ff)"/></g><g id="line2d_22"><g id="g300"><use style="stroke:#000;stroke-width:.8" id="use298" width="100%" height="100%" x="87.39" y="132.538" xlink:href="#mba15929484"/></g></g><g id="text_12"><g id="g309" transform="matrix(0.1,0,0,-0.1,64.486875,136.33687)"><use id="use303" width="100%" height="100%" x="0" y="0" xlink:href="#DejaVuSans-48"/><use id="use305" width="100%" height="100%" x="63.623" y="0" xlink:href="#DejaVuSans-46"/><use id="use307" width="100%" height="100%" x="95.41" y="0" xlink:href="#DejaVuSans-56"/></g></g></g><g id="ytick_6"><g id="line2d_23"><path style="fill:none;stroke:#b0b0b0;stroke-width:.8;stroke-linecap:square" id="path313" d="M 87.39,69.6384 H 629.208" clip-path="url(#pca11af20ff)"/></g><g id="line2d_24"><g id="g318"><use style="stroke:#000;stroke-width:.8" id="use316" width="100%" height="100%" x="87.39" y="69.638" xlink:href="#mba15929484"/></g></g><g id="text_13"><g id="g327" transform="matrix(0.1,0,0,-0.1,64.486875,73.437619)"><use id="use321" width="100%" height="100%" x="0" y="0" xlink:href="#DejaVuSans-49"/><use id="use323" width="100%" height="100%" x="63.623" y="0" xlink:href="#DejaVuSans-46"/><use id="use325" width="100%" height="100%" x="95.41" y="0" xlink:href="#DejaVuSans-48"/></g></g></g><g id="text_14"><g id="g373" transform="matrix(0,-0.1,-0.1,0,58.407188,271.10124)"><defs id="defs337"><path id="DejaVuSans-83" d="m 53.515625,70.515625 v -9.625 q -5.609375,2.6875 -10.59375,4 -4.984375,1.328125 -9.625,1.328125 -8.046875,0 -12.421875,-3.125 -4.375,-3.125 -4.375,-8.890625 0,-4.84375 2.90625,-7.3125 2.90625,-2.453125 11.015625,-3.96875 L 36.375,41.703125 Q 47.40625,39.59375 52.65625,34.296875 57.90625,29 57.90625,20.125 q 0,-10.609375 -7.109375,-16.078125 -7.09375,-5.46875 -20.8125,-5.46875 -5.171875,0 -11.015625,1.171875 Q 13.140625,0.921875 6.890625,3.21875 V 13.375 q 6,-3.359375 11.765625,-5.078125 5.765625,-1.703125 11.328125,-1.703125 8.4375,0 13.03125,3.3125 4.59375,3.328125 4.59375,9.484375 0,5.359375 -3.296875,8.390625 Q 41.015625,30.8125 33.5,32.328125 L 27.484375,33.5 q -11.03125,2.1875 -15.96875,6.875 -4.921875,4.6875 -4.921875,13.046875 0,9.671875 6.8125,15.234375 6.8125,5.5625 18.765625,5.5625 5.140625,0 10.453125,-0.9375 5.328125,-0.921875 10.890625,-2.765625 z"/><path id="DejaVuSans-97" d="m 34.28125,27.484375 q -10.890625,0 -15.09375,-2.484375 -4.203125,-2.484375 -4.203125,-8.5 0,-4.78125 3.15625,-7.59375 3.15625,-2.796875 8.5625,-2.796875 7.484375,0 12,5.296875 4.515625,5.296875 4.515625,14.078125 v 2 z m 17.921875,3.71875 V 0 H 43.21875 v 8.296875 q -3.078125,-4.96875 -7.671875,-7.34375 -4.59375,-2.375 -11.234375,-2.375 -8.390625,0 -13.359375,4.71875 Q 6,8.015625 6,15.921875 q 0,9.21875 6.171875,13.90625 6.1875,4.6875 18.4375,4.6875 H 43.21875 v 0.890625 q 0,6.203125 -4.078125,9.59375 -4.078125,3.390625 -11.453125,3.390625 -4.6875,0 -9.140625,-1.125 -4.4375,-1.125 -8.53125,-3.375 v 8.3125 q 4.921875,1.90625 9.5625,2.84375 Q 24.21875,56 28.609375,56 q 11.875,0 17.734375,-6.15625 5.859375,-6.140625 5.859375,-18.640625 z"/><path id="DejaVuSans-112" d="m 18.109375,8.203125 v -29 H 9.078125 V 54.6875 h 9.03125 v -8.296875 q 2.84375,4.875 7.15625,7.234375 Q 29.59375,56 35.59375,56 q 9.96875,0 16.1875,-7.90625 6.234375,-7.90625 6.234375,-20.796875 0,-12.890625 -6.234375,-20.8125 -6.21875,-7.90625 -16.1875,-7.90625 -6,0 -10.328125,2.375 -4.3125,2.375 -7.15625,7.25 z M 48.6875,27.296875 q 0,9.90625 -4.078125,15.546875 -4.078125,5.640625 -11.203125,5.640625 -7.140625,0 -11.21875,-5.640625 -4.078125,-5.640625 -4.078125,-15.546875 0,-9.90625 4.078125,-15.546875 4.078125,-5.640625 11.21875,-5.640625 7.125,0 11.203125,5.640625 4.078125,5.640625 4.078125,15.546875 z"/><path id="DejaVuSans-114" d="m 41.109375,46.296875 q -1.515625,0.875 -3.296875,1.28125 Q 36.03125,48 33.890625,48 26.265625,48 22.1875,43.046875 18.109375,38.09375 18.109375,28.8125 V 0 h -9.03125 v 54.6875 h 9.03125 v -8.5 q 2.84375,4.984375 7.375,7.390625 Q 30.03125,56 36.53125,56 q 0.921875,0 2.046875,-0.125 1.125,-0.109375 2.484375,-0.359375 z"/><path id="DejaVuSans-99" d="M 48.78125,52.59375 V 44.1875 q -3.8125,2.109375 -7.640625,3.15625 -3.828125,1.046875 -7.734375,1.046875 -8.75,0 -13.59375,-5.546875 -4.828125,-5.53125 -4.828125,-15.546875 0,-10.015625 4.828125,-15.5625 4.84375,-5.53125 13.59375,-5.53125 3.90625,0 7.734375,1.046875 3.828125,1.046875 7.640625,3.15625 v -8.3125 q -3.765625,-1.75 -7.796875,-2.625 -4.015625,-0.890625 -8.5625,-0.890625 -12.359375,0 -19.640625,7.765625 -7.265625,7.765625 -7.265625,20.953125 0,13.375 7.34375,21.03125 Q 20.21875,56 33.015625,56 q 4.140625,0 8.09375,-0.859375 3.953125,-0.84375 7.671875,-2.546875 z"/><path id="DejaVuSans-62" d="m 10.59375,49.21875 v 8.890625 L 73.1875,35.40625 V 27.296875 L 10.59375,4.59375 v 8.890625 l 50.296875,17.8125 z"/></defs><use id="use339" width="100%" height="100%" x="0" y="0" xlink:href="#DejaVuSans-83"/><use id="use341" width="100%" height="100%" x="63.477" y="0" xlink:href="#DejaVuSans-119"/><use id="use343" width="100%" height="100%" x="145.264" y="0" xlink:href="#DejaVuSans-97"/><use id="use345" width="100%" height="100%" x="206.543" y="0" xlink:href="#DejaVuSans-112"/><use id="use347" width="100%" height="100%" x="270.02" y="0" xlink:href="#DejaVuSans-32"/><use id="use349" width="100%" height="100%" x="301.807" y="0" xlink:href="#DejaVuSans-112"/><use id="use351" width="100%" height="100%" x="365.283" y="0" xlink:href="#DejaVuSans-114"/><use id="use353" width="100%" height="100%" x="406.396" y="0" xlink:href="#DejaVuSans-105"/><use id="use355" width="100%" height="100%" x="434.18" y="0" xlink:href="#DejaVuSans-99"/><use id="use357" width="100%" height="100%" x="489.16" y="0" xlink:href="#DejaVuSans-101"/><use id="use359" width="100%" height="100%" x="550.684" y="0" xlink:href="#DejaVuSans-32"/><use id="use361" width="100%" height="100%" x="582.471" y="0" xlink:href="#DejaVuSans-120"/><use id="use363" width="100%" height="100%" x="641.65" y="0" xlink:href="#DejaVuSans-32"/><use id="use365" width="100%" height="100%" x="673.438" y="0" xlink:href="#DejaVuSans-45"/><use id="use367" width="100%" height="100%" x="709.521" y="0" xlink:href="#DejaVuSans-62"/><use id="use369" width="100%" height="100%" x="793.311" y="0" xlink:href="#DejaVuSans-32"/><use id="use371" width="100%" height="100%" x="825.098" y="0" xlink:href="#DejaVuSans-121"/></g></g></g><g id="line2d_25"><path style="fill:none;stroke:#1f77b4;stroke-width:1.5;stroke-linecap:square" id="path377" d="m 112.01809,69.6384 124.92617,0.904715 56.40397,0.630334 40.19706,0.6618 30.68967,0.719152 24.33499,0.784702 19.85223,0.855238 16.55173,0.929131 14.03941,1.00547 12.01972,1.078075 10.44335,1.154223 9.16257,1.230681 8.12808,1.310969 7.29064,1.397874 6.55173,1.479857 5.91133,1.559378 5.41873,1.657443 4.92611,1.735479 4.58128,1.848308 4.23645,1.948213 3.94089,2.055972 3.69459,2.178021 3.44827,2.288293 3.25124,2.420032 3.10345,2.58495 2.95566,2.74966 2.85715,2.96488 2.70936,3.13099 2.61084,3.35356 2.56157,3.65638 2.46306,3.90514 2.41379,4.24821 2.36454,4.62034 2.31527,5.02281 2.26601,5.45645 2.21675,5.92155 2.21675,6.57126 2.16749,7.12977 2.16749,7.90809 2.16749,8.77297 2.16749,9.72755 2.16748,10.77078 2.21675,12.1788 2.26601,13.73387 2.36454,15.74788 2.51231,18.26727 2.90641,22.82823 8.66995,69.40181 1.67488,10.92635 1.37931,7.63509 1.18227,5.36447 0.98522,3.53147 0.83744,2.27227 0.73892,1.40972 0.59113,0.69062 0.34483,0.17945 v 0" clip-path="url(#pca11af20ff)"/></g><g id="line2d_26"><path style="fill:none;stroke:#ff7f0e;stroke-width:1.5;stroke-linecap:square" id="path380" d="m 112.01809,69.6384 135.4694,0.542387 58.52278,0.454414 40.29599,0.52422 30.09884,0.604646 23.49778,0.686195 18.96572,0.769094 15.66519,0.8513 13.20211,0.934483 11.2809,1.016061 9.7538,1.096005 8.57152,1.182136 7.58629,1.266661 6.74884,1.347453 6.10843,1.443486 5.5173,1.529478 5.02469,1.620403 4.63059,1.72536 4.23649,1.812008 3.94093,1.923583 3.69462,2.04918 3.44832,2.164321 3.25126,2.300404 3.10348,2.469014 2.9557,2.638518 2.80791,2.8058 2.70939,3.02511 2.61086,3.25366 2.51234,3.48975 2.41382,3.7311 2.36456,4.06392 2.31529,4.42475 2.26604,4.81473 2.21677,5.23459 2.16751,5.68456 2.16751,6.31517 2.11825,6.85557 2.11825,7.61177 2.11825,8.45342 2.11825,9.38445 2.11824,10.4052 2.16751,11.79174 2.21678,13.33406 2.26603,15.00961 2.41382,17.5062 2.70939,21.33799 3.69462,31.0669 4.38428,36.53047 2.01973,15.00588 1.57637,10.19012 1.33006,7.24934 1.13302,5.0335 0.98523,3.4313 0.83745,2.17891 0.73892,1.33703 0.59114,0.66571 0.54188,0.29161 0.19704,0.0303 v 0" clip-path="url(#pca11af20ff)"/></g><g id="patch_3"><path style="fill:none;stroke:#000;stroke-width:.8;stroke-linecap:square;stroke-linejoin:miter" id="path383" d="M 87.39,399.8592 V 53.9136"/></g><g id="patch_4"><path style="fill:none;stroke:#000;stroke-width:.8;stroke-linecap:square;stroke-linejoin:miter" id="path386" d="M 629.208,399.8592 V 53.9136"/></g><g id="patch_5"><path style="fill:none;stroke:#000;stroke-width:.8;stroke-linecap:square;stroke-linejoin:miter" id="path389" d="M 87.39,399.8592 H 629.208"/></g><g id="patch_6"><path style="fill:none;stroke:#000;stroke-width:.8;stroke-linecap:square;stroke-linejoin:miter" id="path392" d="M 87.39,53.9136 H 629.208"/></g><g id="text_15"><g id="g427" transform="matrix(0.12,0,0,-0.12,322.80525,47.9136)"><defs id="defs399"><path id="DejaVuSans-80" d="M 19.671875,64.796875 V 37.40625 h 12.40625 q 6.890625,0 10.640625,3.5625 3.765625,3.5625 3.765625,10.15625 0,6.546875 -3.765625,10.109375 -3.75,3.5625 -10.640625,3.5625 z M 9.8125,72.90625 h 22.265625 q 12.265625,0 18.53125,-5.546875 6.28125,-5.546875 6.28125,-16.234375 0,-10.796875 -6.28125,-16.3125 -6.265625,-5.515625 -18.53125,-5.515625 H 19.671875 V 0 H 9.8125 Z"/><path id="DejaVuSans-111" d="m 30.609375,48.390625 q -7.21875,0 -11.421875,-5.640625 -4.203125,-5.640625 -4.203125,-15.453125 0,-9.8125 4.171875,-15.453125 4.1875,-5.640625 11.453125,-5.640625 7.1875,0 11.375,5.65625 4.203125,5.671875 4.203125,15.4375 0,9.71875 -4.203125,15.40625 -4.1875,5.6875 -11.375,5.6875 z m 0,7.609375 q 11.71875,0 18.40625,-7.625 6.703125,-7.609375 6.703125,-21.078125 0,-13.421875 -6.703125,-21.078125 -6.6875,-7.640625 -18.40625,-7.640625 -11.765625,0 -18.4375,7.640625 -6.65625,7.65625 -6.65625,21.078125 0,13.46875 6.65625,21.078125 Q 18.84375,56 30.609375,56 Z"/><path id="DejaVuSans-102" d="M 37.109375,75.984375 V 68.5 h -8.59375 q -4.828125,0 -6.71875,-1.953125 -1.875,-1.953125 -1.875,-7.03125 V 54.6875 H 34.71875 V 47.703125 H 19.921875 V 0 h -9.03125 V 47.703125 H 2.296875 V 54.6875 h 8.59375 V 58.5 q 0,9.125 4.25,13.296875 4.25,4.1875 13.46875,4.1875 z"/><path id="DejaVuSans-108" d="M 9.421875,75.984375 H 18.40625 V 0 H 9.421875 Z"/></defs><use id="use401" width="100%" height="100%" x="0" y="0" xlink:href="#DejaVuSans-80"/><use id="use403" width="100%" height="100%" x="58.553" y="0" xlink:href="#DejaVuSans-114"/><use id="use405" width="100%" height="100%" x="99.666" y="0" xlink:href="#DejaVuSans-105"/><use id="use407" width="100%" height="100%" x="127.449" y="0" xlink:href="#DejaVuSans-99"/><use id="use409" width="100%" height="100%" x="182.43" y="0" xlink:href="#DejaVuSans-101"/><use id="use411" width="100%" height="100%" x="243.953" y="0" xlink:href="#DejaVuSans-32"/><use id="use413" width="100%" height="100%" x="275.74" y="0" xlink:href="#DejaVuSans-112"/><use id="use415" width="100%" height="100%" x="339.217" y="0" xlink:href="#DejaVuSans-114"/><use id="use417" width="100%" height="100%" x="378.08" y="0" xlink:href="#DejaVuSans-111"/><use id="use419" width="100%" height="100%" x="439.262" y="0" xlink:href="#DejaVuSans-102"/><use id="use421" width="100%" height="100%" x="474.467" y="0" xlink:href="#DejaVuSans-105"/><use id="use423" width="100%" height="100%" x="502.25" y="0" xlink:href="#DejaVuSans-108"/><use id="use425" width="100%" height="100%" x="530.033" y="0" xlink:href="#DejaVuSans-101"/></g></g><g id="legend_1"><g id="patch_7"><path style="opacity:.8;fill:#fff;stroke:#ccc;stroke-linejoin:miter" id="path430" d="m 94.39,394.8592 h 182.12031 q 2,0 2,-2 v -28.35625 q 0,-2 -2,-2 H 94.39 q -2,0 -2,2 v 28.35625 q 0,2 2,2 z"/></g><g id="line2d_27"><path style="fill:none;stroke:#1f77b4;stroke-width:1.5;stroke-linecap:square" id="path433" d="m 96.39,370.60139 h 20"/></g><g id="text_16"><g id="g481" transform="matrix(0.1,0,0,-0.1,124.39,374.10139)"><defs id="defs441"><path id="DejaVuSans-98" d="m 48.6875,27.296875 q 0,9.90625 -4.078125,15.546875 -4.078125,5.640625 -11.203125,5.640625 -7.140625,0 -11.21875,-5.640625 -4.078125,-5.640625 -4.078125,-15.546875 0,-9.90625 4.078125,-15.546875 4.078125,-5.640625 11.21875,-5.640625 7.125,0 11.203125,5.640625 4.078125,5.640625 4.078125,15.546875 z m -30.578125,19.09375 q 2.84375,4.875 7.15625,7.234375 Q 29.59375,56 35.59375,56 q 9.96875,0 16.1875,-7.90625 6.234375,-7.90625 6.234375,-20.796875 0,-12.890625 -6.234375,-20.8125 -6.21875,-7.90625 -16.1875,-7.90625 -6,0 -10.328125,2.375 -4.3125,2.375 -7.15625,7.25 V 0 h -9.03125 v 75.984375 h 9.03125 z"/><path id="DejaVuSans-115" d="m 44.28125,53.078125 v -8.5 Q 40.484375,46.53125 36.375,47.5 q -4.09375,0.984375 -8.5,0.984375 -6.6875,0 -10.03125,-2.046875 Q 14.5,44.390625 14.5,40.28125 q 0,-3.125 2.390625,-4.90625 2.390625,-1.78125 9.625,-3.390625 l 3.078125,-0.6875 Q 39.15625,29.25 43.1875,25.515625 47.21875,21.78125 47.21875,15.09375 q 0,-7.625 -6.03125,-12.078125 -6.03125,-4.4375 -16.578125,-4.4375 -4.390625,0 -9.15625,0.859375 Q 10.6875,0.296875 5.421875,2 v 9.28125 q 4.984375,-2.59375 9.8125,-3.890625 4.828125,-1.28125 9.578125,-1.28125 6.34375,0 9.75,2.171875 3.421875,2.171875 3.421875,6.125 0,3.65625 -2.46875,5.609375 -2.453125,1.953125 -10.8125,3.765625 l -3.125,0.734375 q -8.34375,1.75 -12.0625,5.390625 -3.703125,3.640625 -3.703125,9.984375 0,7.71875 5.46875,11.90625 Q 16.75,56 26.8125,56 q 4.96875,0 9.359375,-0.734375 4.40625,-0.71875 8.109375,-2.1875 z"/><path id="DejaVuSans-44" d="M 11.71875,12.40625 H 22.015625 V 4 l -8,-15.625 H 7.71875 l 4,15.625 z"/><path id="DejaVuSans-65" d="M 34.1875,63.1875 20.796875,26.90625 h 26.8125 z m -5.578125,9.71875 h 11.1875 L 67.578125,0 h -10.25 L 50.6875,18.703125 H 17.828125 L 11.1875,0 H 0.78125 Z"/></defs><use id="use443" width="100%" height="100%" x="0" y="0" xlink:href="#DejaVuSans-83"/><use id="use445" width="100%" height="100%" x="63.477" y="0" xlink:href="#DejaVuSans-116"/><use id="use447" width="100%" height="100%" x="102.686" y="0" xlink:href="#DejaVuSans-97"/><use id="use449" width="100%" height="100%" x="163.965" y="0" xlink:href="#DejaVuSans-98"/><use id="use451" width="100%" height="100%" x="227.441" y="0" xlink:href="#DejaVuSans-108"/><use id="use453" width="100%" height="100%" x="255.225" y="0" xlink:href="#DejaVuSans-101"/><use id="use455" width="100%" height="100%" x="316.748" y="0" xlink:href="#DejaVuSans-115"/><use id="use457" width="100%" height="100%" x="368.848" y="0" xlink:href="#DejaVuSans-119"/><use id="use459" width="100%" height="100%" x="450.635" y="0" xlink:href="#DejaVuSans-97"/><use id="use461" width="100%" height="100%" x="511.914" y="0" xlink:href="#DejaVuSans-112"/><use id="use463" width="100%" height="100%" x="575.391" y="0" xlink:href="#DejaVuSans-44"/><use id="use465" width="100%" height="100%" x="607.178" y="0" xlink:href="#DejaVuSans-32"/><use id="use467" width="100%" height="100%" x="638.965" y="0" xlink:href="#DejaVuSans-65"/><use id="use469" width="100%" height="100%" x="707.373" y="0" xlink:href="#DejaVuSans-32"/><use id="use471" width="100%" height="100%" x="739.16" y="0" xlink:href="#DejaVuSans-61"/><use id="use473" width="100%" height="100%" x="822.949" y="0" xlink:href="#DejaVuSans-32"/><use id="use475" width="100%" height="100%" x="854.736" y="0" xlink:href="#DejaVuSans-49"/><use id="use477" width="100%" height="100%" x="918.359" y="0" xlink:href="#DejaVuSans-48"/><use id="use479" width="100%" height="100%" x="981.982" y="0" xlink:href="#DejaVuSans-48"/></g></g><g id="line2d_29"><path style="fill:none;stroke:#ff7f0e;stroke-width:1.5;stroke-linecap:square" id="path484" d="m 96.39,385.27951 h 20"/></g><g id="text_17"><g id="g552" transform="matrix(0.1,0,0,-0.1,124.39,388.77951)"><defs id="defs492"><path id="DejaVuSans-70" d="m 9.8125,72.90625 h 41.890625 v -8.3125 H 19.671875 V 43.109375 h 28.90625 V 34.8125 H 19.671875 V 0 H 9.8125 Z"/><path id="DejaVuSans-100" d="m 45.40625,46.390625 v 29.59375 h 8.984375 V 0 H 45.40625 v 8.203125 q -2.828125,-4.875 -7.15625,-7.25 -4.3125,-2.375 -10.375,-2.375 -9.90625,0 -16.140625,7.90625 -6.21875,7.921875 -6.21875,20.8125 0,12.890625 6.21875,20.796875 Q 17.96875,56 27.875,56 q 6.0625,0 10.375,-2.375 4.328125,-2.359375 7.15625,-7.234375 z M 14.796875,27.296875 q 0,-9.90625 4.078125,-15.546875 4.078125,-5.640625 11.203125,-5.640625 7.125,0 11.21875,5.640625 4.109375,5.640625 4.109375,15.546875 0,9.90625 -4.109375,15.546875 -4.09375,5.640625 -11.21875,5.640625 -7.125,0 -11.203125,-5.640625 -4.078125,-5.640625 -4.078125,-15.546875 z"/><path id="DejaVuSans-110" d="M 54.890625,33.015625 V 0 H 45.90625 v 32.71875 q 0,7.765625 -3.03125,11.609375 -3.03125,3.859375 -9.078125,3.859375 -7.28125,0 -11.484375,-4.640625 -4.203125,-4.625 -4.203125,-12.640625 V 0 h -9.03125 v 54.6875 h 9.03125 v -8.5 q 3.234375,4.9375 7.59375,7.375 4.375,2.4375 10.09375,2.4375 9.421875,0 14.25,-5.828125 4.84375,-5.828125 4.84375,-17.15625 z"/><path id="DejaVuSans-118" d="M 2.984375,54.6875 H 12.5 L 29.59375,8.796875 46.6875,54.6875 h 9.515625 L 35.6875,0 H 23.484375 Z"/></defs><use id="use494" width="100%" height="100%" x="0" y="0" xlink:href="#DejaVuSans-70"/><use id="use496" width="100%" height="100%" x="52.02" y="0" xlink:href="#DejaVuSans-101"/><use id="use498" width="100%" height="100%" x="113.543" y="0" xlink:href="#DejaVuSans-101"/><use id="use500" width="100%" height="100%" x="175.066" y="0" xlink:href="#DejaVuSans-100"/><use id="use502" width="100%" height="100%" x="238.543" y="0" xlink:href="#DejaVuSans-101"/><use id="use504" width="100%" height="100%" x="300.066" y="0" xlink:href="#DejaVuSans-114"/><use id="use506" width="100%" height="100%" x="341.18" y="0" xlink:href="#DejaVuSans-32"/><use id="use508" width="100%" height="100%" x="372.967" y="0" xlink:href="#DejaVuSans-112"/><use id="use510" width="100%" height="100%" x="436.443" y="0" xlink:href="#DejaVuSans-111"/><use id="use512" width="100%" height="100%" x="497.625" y="0" xlink:href="#DejaVuSans-111"/><use id="use514" width="100%" height="100%" x="558.807" y="0" xlink:href="#DejaVuSans-108"/><use id="use516" width="100%" height="100%" x="586.59" y="0" xlink:href="#DejaVuSans-32"/><use id="use518" width="100%" height="100%" x="618.377" y="0" xlink:href="#DejaVuSans-105"/><use id="use520" width="100%" height="100%" x="646.16" y="0" xlink:href="#DejaVuSans-110"/><use id="use522" width="100%" height="100%" x="709.539" y="0" xlink:href="#DejaVuSans-118"/><use id="use524" width="100%" height="100%" x="768.719" y="0" xlink:href="#DejaVuSans-97"/><use id="use526" width="100%" height="100%" x="829.998" y="0" xlink:href="#DejaVuSans-114"/><use id="use528" width="100%" height="100%" x="871.111" y="0" xlink:href="#DejaVuSans-105"/><use id="use530" width="100%" height="100%" x="898.895" y="0" xlink:href="#DejaVuSans-97"/><use id="use532" width="100%" height="100%" x="960.174" y="0" xlink:href="#DejaVuSans-110"/><use id="use534" width="100%" height="100%" x="1023.553" y="0" xlink:href="#DejaVuSans-116"/><use id="use536" width="100%" height="100%" x="1062.762" y="0" xlink:href="#DejaVuSans-32"/><use id="use538" width="100%" height="100%" x="1094.549" y="0" xlink:href="#DejaVuSans-65"/><use id="use540" width="100%" height="100%" x="1162.957" y="0" xlink:href="#DejaVuSans-32"/><use id="use542" width="100%" height="100%" x="1194.744" y="0" xlink:href="#DejaVuSans-61"/><use id="use544" width="100%" height="100%" x="1278.533" y="0" xlink:href="#DejaVuSans-32"/><use id="use546" width="100%" height="100%" x="1310.32" y="0" xlink:href="#DejaVuSans-52"/><use id="use548" width="100%" height="100%" x="1373.943" y="0" xlink:href="#DejaVuSans-48"/><use id="use550" width="100%" height="100%" x="1437.566" y="0" xlink:href="#DejaVuSans-48"/></g></g></g></g></g><defs id="defs561"><clipPath id="pca11af20ff"><rect id="rect558" width="541.818" height="345.946" x="87.39" y="53.914"/></clipPath></defs></svg>